# xmcd
#
# Track frame offsets:
#	150
#	10564
#	25112
#	38762
#	55289
#	66939
#	80894
#	95857
#	111477
#	126410
#
# Disc length: 1855 seconds
#
# Revision: 0
# Processed by: cddbd v1.5.1PL0 Copyright (c) Steve Scherf et al.
# Submitted via: EasyCDDAExtractor 8.1.4.1
#
DISCID=8a073d0a
DTITLE=Guitar Man - 21 Rondswerf
DYEAR=1900
DGENRE=Instrumental
TTITLE0=Skemer Aand
TTITLE1=Pampoen
TTITLE2=Tennese Waltz
TTITLE3=If You Wanna Be Happy
TTITLE4=I'm A Believer
TTITLE5=Day O
TTITLE6=Hard To Be Humble
TTITLE7=Living Next Door To Alice
TTITLE8=Ban Moon Rising
TTITLE9=Give Me Hope Joanna
EXTD=
EXTT0=
EXTT1=
EXTT2=
EXTT3=
EXTT4=
EXTT5=
EXTT6=
EXTT7=
EXTT8=
EXTT9=
PLAYORDER=
